# xmcd
#
# Track frame offsets:
#	150
#	13375
#	21862
#	37165
#	46015
#	51115
#	63665
#	74915
#	80025
#	87152
#	95935
#	109675
#	122950
#	129910
#	144300
#	150565
#	165110
#	167030
#	170695
#	182020
#	183635
#	195085
#
# Disc length: 2869 seconds
#
# Revision: 11
# Processed by: cddbd v1.5.2PL0 Copyright (c) Steve Scherf et al.
# Submitted via: audiograbber 1.83.01
#
DISCID=340b3316
DTITLE=Chumbawamba - Wysiwyg
DYEAR=2000
DGENRE=Rock
TTITLE0=I'm With Stupid
TTITLE1=Shake Baby Shake
TTITLE2=Pass It Along
TTITLE3=Hey Hey We're The Junkies
TTITLE4=The Health and Happiness Show
TTITLE5=I'm Coming Out
TTITLE6=I'm In Trouble Again
TTITLE7=Social Dogma
TTITLE8=Www Dot
TTITLE9=New York Mining Disaster 1941
TTITLE10=I'm Not Sorry, I Was Having Fun
TTITLE11=Jesus In Vegas
TTITLE12=The Standing Still
TTITLE13=She's Got All The Friends
TTITLE14=Ladies For Compassionate Lynching
TTITLE15=Celebration, Florida
TTITLE16=Moses With A Gun
TTITLE17=The Physical Impossibility Of Death In The Mind Of Jerry Springer
TTITLE18=Smart Bomb
TTITLE19=Knickers
TTITLE20=Lie Lie Lie Lie
TTITLE21=Dumbing Down
EXTD=YEAR: 2000
EXTT0=
EXTT1=
EXTT2=
EXTT3=
EXTT4=
EXTT5=
EXTT6=
EXTT7=
EXTT8=
EXTT9=
EXTT10=
EXTT11=
EXTT12=
EXTT13=
EXTT14=
EXTT15=
EXTT16=
EXTT17=
EXTT18=
EXTT19=
EXTT20=
EXTT21=
PLAYORDER=
